HIERARCHY
ROOT Root
{
  OFFSET 0.0 0.0 0.0
  CHANNELS 6 Xposition Yposition Zposition Zrotation Yrotation Xrotation
  JOINT Hips
  {
    OFFSET 0.0 100.0 0.0
    CHANNELS 6 Xposition Yposition Zposition Zrotation Yrotation Xrotation
    JOINT Spine1
    {
      OFFSET 5.003913 -0.037094 -0.013727
      CHANNELS 3 Zrotation Yrotation Xrotation
      JOINT Spine2
      {
        OFFSET 7.125363 -1e-06 0.0
        CHANNELS 3 Zrotation Yrotation Xrotation
        JOINT Chest
        {
          OFFSET 7.594027 1e-06 0.0
          CHANNELS 3 Zrotation Yrotation Xrotation
          JOINT Neck1
          {
            OFFSET 26.313086 -0.460272 -0.181672
            CHANNELS 3 Zrotation Yrotation Xrotation
            JOINT Neck2
            {
              OFFSET 8.045911 0.0 0.0
              CHANNELS 3 Zrotation Yrotation Xrotation
              JOINT Head
              {
                OFFSET 6.432774 0.0 0.0
                CHANNELS 3 Zrotation Yrotation Xrotation
                JOINT HeadEnd
                {
                  OFFSET 16.169773 0.06451 0.00362
                  CHANNELS 3 Zrotation Yrotation Xrotation
                }
                JOINT Jaw
                {
                  OFFSET 0.108741 3.12938 0.002639
                  CHANNELS 3 Zrotation Yrotation Xrotation
                }
                JOINT LeftEye
                {
                  OFFSET 4.45173 8.166359 3.206392
                  CHANNELS 3 Zrotation Yrotation Xrotation
                }
                JOINT RightEye
                {
                  OFFSET 4.436895 8.135758 -3.222429
                  CHANNELS 3 Zrotation Yrotation Xrotation
                }
              }
            }
          }
          JOINT LeftShoulder
          {
            OFFSET 23.218927 5.195579 1.621656
            CHANNELS 3 Zrotation Yrotation Xrotation
            JOINT LeftArm
            {
              OFFSET 15.902118 2e-06 -2e-06
              CHANNELS 3 Zrotation Yrotation Xrotation
              JOINT LeftForeArm
              {
                OFFSET 28.739307 0.0 -1e-06
                CHANNELS 3 Zrotation Yrotation Xrotation
                JOINT LeftHand
                {
                  OFFSET 27.093981 -4e-06 0.0
                  CHANNELS 3 Zrotation Yrotation Xrotation
                  JOINT LeftHandThumb1
                  {
                    OFFSET 2.276781 3.380274 0.83384
                    CHANNELS 3 Zrotation Yrotation Xrotation
                    JOINT LeftHandThumb2
                    {
                      OFFSET 4.705309 -1e-06 -1e-06
                      CHANNELS 3 Zrotation Yrotation Xrotation
                      JOINT LeftHandThumb3
                      {
                        OFFSET 2.798515 0.0 3e-06
                        CHANNELS 3 Zrotation Yrotation Xrotation
                        JOINT LeftHandThumbEnd
                        {
                          OFFSET 3.180793 4e-06 -4e-06
                          CHANNELS 3 Zrotation Yrotation Xrotation
                        }
                      }
                    }
                  }
                  JOINT LeftHandIndex1
                  {
                    OFFSET 3.247786 2.352677 0.137192
                    CHANNELS 3 Zrotation Yrotation Xrotation
                    JOINT LeftHandIndex2
                    {
                      OFFSET 6.367095 1e-06 0.0
                      CHANNELS 3 Zrotation Yrotation Xrotation
                      JOINT LeftHandIndex3
                      {
                        OFFSET 3.662364 0.0 0.0
                        CHANNELS 3 Zrotation Yrotation Xrotation
                        JOINT LeftHandIndex4
                        {
                          OFFSET 2.329242 4e-06 -4e-06
                          CHANNELS 3 Zrotation Yrotation Xrotation
                          JOINT LeftHandIndexEnd
                          {
                            OFFSET 2.767823 1e-06 0.0
                            CHANNELS 3 Zrotation Yrotation Xrotation
                          }
                        }
                      }
                    }
                  }
                  JOINT LeftHandMiddle1
                  {
                    OFFSET 3.163612 0.945023 -0.406112
                    CHANNELS 3 Zrotation Yrotation Xrotation
                    JOINT LeftHandMiddle2
                    {
                      OFFSET 6.276789 3e-06 0.0
                      CHANNELS 3 Zrotation Yrotation Xrotation
                      JOINT LeftHandMiddle3
                      {
                        OFFSET 4.35652 -1e-06 4e-06
                        CHANNELS 3 Zrotation Yrotation Xrotation
                        JOINT LeftHandMiddle4
                        {
                          OFFSET 2.996877 0.0 8e-06
                          CHANNELS 3 Zrotation Yrotation Xrotation
                          JOINT LeftHandMiddleEnd
                          {
                            OFFSET 2.323256 3e-06 -4e-06
                            CHANNELS 3 Zrotation Yrotation Xrotation
                          }
                        }
                      }
                    }
                  }
                  JOINT LeftHandRing1
                  {
                    OFFSET 2.882606 -0.309162 0.107445
                    CHANNELS 3 Zrotation Yrotation Xrotation
                    JOINT LeftHandRing2
                    {
                      OFFSET 6.033198 0.0 4e-06
                      CHANNELS 3 Zrotation Yrotation Xrotation
                      JOINT LeftHandRing3
                      {
                        OFFSET 4.350578 3e-06 0.0
                        CHANNELS 3 Zrotation Yrotation Xrotation
                        JOINT LeftHandRing4
                        {
                          OFFSET 2.651321 2e-06 -7e-06
                          CHANNELS 3 Zrotation Yrotation Xrotation
                          JOINT LeftHandRingEnd
                          {
                            OFFSET 1.937663 1e-06 -4e-06
                            CHANNELS 3 Zrotation Yrotation Xrotation
                          }
                        }
                      }
                    }
                  }
                  JOINT LeftHandPinky1
                  {
                    OFFSET 2.865315 -1.525436 0.575687
                    CHANNELS 3 Zrotation Yrotation Xrotation
                    JOINT LeftHandPinky2
                    {
                      OFFSET 5.54936 1e-06 -8e-06
                      CHANNELS 3 Zrotation Yrotation Xrotation
                      JOINT LeftHandPinky3
                      {
                        OFFSET 3.070974 0.0 -4e-06
                        CHANNELS 3 Zrotation Yrotation Xrotation
                        JOINT LeftHandPinky4
                        {
                          OFFSET 1.549672 1e-06 0.0
                          CHANNELS 3 Zrotation Yrotation Xrotation
                          JOINT LeftHandPinkyEnd
                          {
                            OFFSET 1.952123 0.0 0.0
                            CHANNELS 3 Zrotation Yrotation Xrotation
                          }
                        }
                      }
                    }
                  }
                }
              }
            }
          }
          JOINT RightShoulder
          {
            OFFSET 23.161716 5.296122 -1.380114
            CHANNELS 3 Zrotation Yrotation Xrotation
            JOINT RightArm
            {
              OFFSET -16.027195 -2e-06 1.1e-05
              CHANNELS 3 Zrotation Yrotation Xrotation
              JOINT RightForeArm
              {
                OFFSET -28.736639 4e-06 2e-06
                CHANNELS 3 Zrotation Yrotation Xrotation
                JOINT RightHand
                {
                  OFFSET -27.133619 6e-06 0.0
                  CHANNELS 3 Zrotation Yrotation Xrotation
                  JOINT RightHandThumb1
                  {
                    OFFSET -2.274328 -3.351035 -0.83067
                    CHANNELS 3 Zrotation Yrotation Xrotation
                    JOINT RightHandThumb2
                    {
                      OFFSET -4.703594 -3e-06 2e-06
                      CHANNELS 3 Zrotation Yrotation Xrotation
                      JOINT RightHandThumb3
                      {
                        OFFSET -2.794935 -4e-06 -3e-06
                        CHANNELS 3 Zrotation Yrotation Xrotation
                        JOINT RightHandThumbEnd
                        {
                          OFFSET -3.183852 4e-06 1e-06
                          CHANNELS 3 Zrotation Yrotation Xrotation
                        }
                      }
                    }
                  }
                  JOINT RightHandIndex1
                  {
                    OFFSET -3.253496 -2.33755 -0.127667
                    CHANNELS 3 Zrotation Yrotation Xrotation
                    JOINT RightHandIndex2
                    {
                      OFFSET -6.344434 0.0 0.0
                      CHANNELS 3 Zrotation Yrotation Xrotation
                      JOINT RightHandIndex3
                      {
                        OFFSET -3.654871 0.0 -8e-06
                        CHANNELS 3 Zrotation Yrotation Xrotation
                        JOINT RightHandIndex4
                        {
                          OFFSET -2.327586 -1e-06 0.0
                          CHANNELS 3 Zrotation Yrotation Xrotation
                          JOINT RightHandIndexEnd
                          {
                            OFFSET -2.770001 3e-06 8e-06
                            CHANNELS 3 Zrotation Yrotation Xrotation
                          }
                        }
                      }
                    }
                  }
                  JOINT RightHandMiddle1
                  {
                    OFFSET -3.168223 -0.944764 0.411762
                    CHANNELS 3 Zrotation Yrotation Xrotation
                    JOINT RightHandMiddle2
                    {
                      OFFSET -6.266691 -1e-06 -4e-06
                      CHANNELS 3 Zrotation Yrotation Xrotation
                      JOINT RightHandMiddle3
                      {
                        OFFSET -4.348901 0.0 0.0
                        CHANNELS 3 Zrotation Yrotation Xrotation
                        JOINT RightHandMiddle4
                        {
                          OFFSET -3.00024 2e-06 -4e-06
                          CHANNELS 3 Zrotation Yrotation Xrotation
                          JOINT RightHandMiddleEnd
                          {
                            OFFSET -2.321477 -4e-06 -4e-06
                            CHANNELS 3 Zrotation Yrotation Xrotation
                          }
                        }
                      }
                    }
                  }
                  JOINT RightHandRing1
                  {
                    OFFSET -2.885654 0.293261 -0.119232
                    CHANNELS 3 Zrotation Yrotation Xrotation
                    JOINT RightHandRing2
                    {
                      OFFSET -6.032835 -1e-06 -4e-06
                      CHANNELS 3 Zrotation Yrotation Xrotation
                      JOINT RightHandRing3
                      {
                        OFFSET -4.33881 0.0 -4e-06
                        CHANNELS 3 Zrotation Yrotation Xrotation
                        JOINT RightHandRing4
                        {
                          OFFSET -2.654903 -4e-06 -4e-06
                          CHANNELS 3 Zrotation Yrotation Xrotation
                          JOINT RightHandRingEnd
                          {
                            OFFSET -1.935122 0.0 4e-06
                            CHANNELS 3 Zrotation Yrotation Xrotation
                          }
                        }
                      }
                    }
                  }
                  JOINT RightHandPinky1
                  {
                    OFFSET -2.866241 1.503904 -0.60527
                    CHANNELS 3 Zrotation Yrotation Xrotation
                    JOINT RightHandPinky2
                    {
                      OFFSET -5.553177 -2e-06 0.0
                      CHANNELS 3 Zrotation Yrotation Xrotation
                      JOINT RightHandPinky3
                      {
                        OFFSET -3.062664 -1e-06 -4e-06
                        CHANNELS 3 Zrotation Yrotation Xrotation
                        JOINT RightHandPinky4
                        {
                          OFFSET -1.546529 2e-06 4e-06
                          CHANNELS 3 Zrotation Yrotation Xrotation
                          JOINT RightHandPinkyEnd
                          {
                            OFFSET -1.952341 0.0 -4e-06
                            CHANNELS 3 Zrotation Yrotation Xrotation
                          }
                        }
                      }
                    }
                  }
                }
              }
            }
          }
        }
      }
    }
    JOINT LeftLeg
    {
      OFFSET -8.443107 2.567604 10.043214
      CHANNELS 3 Zrotation Yrotation Xrotation
      JOINT LeftShin
      {
        OFFSET 43.229198 1e-06 -1e-06
        CHANNELS 3 Zrotation Yrotation Xrotation
        JOINT LeftFoot
        {
          OFFSET 42.298611 1e-06 1e-06
          CHANNELS 3 Zrotation Yrotation Xrotation
          JOINT LeftToeBase
          {
            OFFSET 14.165858 1e-06 0.0
            CHANNELS 3 Zrotation Yrotation Xrotation
            JOINT LeftToeEnd
            {
              OFFSET 6.7141 -0.234461 0.0
              CHANNELS 3 Zrotation Yrotation Xrotation
            }
          }
        }
      }
    }
    JOINT RightLeg
    {
      OFFSET -8.303923 2.592729 -10.047278
      CHANNELS 3 Zrotation Yrotation Xrotation
      JOINT RightShin
      {
        OFFSET -43.369682 0.0 1e-06
        CHANNELS 3 Zrotation Yrotation Xrotation
        JOINT RightFoot
        {
          OFFSET -42.260784 4e-06 2e-06
          CHANNELS 3 Zrotation Yrotation Xrotation
          JOINT RightToeBase
          {
            OFFSET -14.222245 -2e-06 -1e-06
            CHANNELS 3 Zrotation Yrotation Xrotation
            JOINT RightToeEnd
            {
              OFFSET -6.660062 0.232574 -2e-06
              CHANNELS 3 Zrotation Yrotation Xrotation
            }
          }
        }
      }
    }
  }
}
MOTION
Frames: 5
Frame Time: 0.03333333333333333
0.0 0.0 0.0 0.0 -0.0 0.0 -10.653466 94.150246 237.004044 90.875313 5.468701 95.876053 9.978264 -0.579376 -0.231647 -8.321869 -0.452643 -0.053699 22.142607 -1.561147 -2.12821 34.377392 -0.81397 2.529856 -2.715142 -0.730096 1.351083 -38.575218 -0.326319 1.632908 5e-06 0.0 -1e-06 0.021809 -0.00098 0.048795 0.043631 -0.012145 0.080169 0.075479 0.001687 0.028832 -89.49382 -74.255806 112.629906 28.843401 -50.75259 3.213914 54.546936 -1.492284 -0.355697 12.776566 8.554155 20.494022 17.636623 -26.322733 52.411194 -19.466654 -14.395597 29.410378 0.0 -8.77482 -3e-06 15.663609 -18.612038 5.895195 -0.609777 -1.795654 -3.889327 -4.807086 -11.046807 -2.937853 4e-06 -20.976011 0.0 -5.019969 -25.033554 -4.031879 5e-06 -1e-06 0.0 -10.634529 -5.686967 -3.565589 10.57327 -17.922947 -3.113898 3e-06 -13.821205 2e-06 -0.501778 -31.181498 -4.027015 -11.410708 -59.432426 7.06104 -13.982711 -7.150197 -2.875043 13.772727 -8.401492 -3.21824 0.347731 -34.211544 0.771657 -0.963031 -17.733368 2.621021 0.0 0.0 0.0 -17.346413 -20.095213 -4.201782 21.757551 -1.638375 3.866426 2e-06 -6.338823 0.0 -1.69759 -22.591747 -6.194005 -1e-06 -4e-06 -2e-06 94.760376 -75.868294 107.554428 32.269215 -48.65313 15.669452 57.80864 0.053457 0.139439 0.482393 14.566931 9.46693 22.182114 -20.375895 49.933308 -16.701811 -16.743528 28.476521 -4e-06 -12.6906 -1e-06 16.192261 -17.457254 2.621695 -0.105919 -1.513856 -4.27588 -5.039039 -5.612868 -2.953554 5e-06 -11.02052 -2e-06 -6.111294 -15.895328 -3.840469 -0.0 -0.0 1e-06 -10.283369 -5.680287 -4.341837 11.028294 -11.302403 -2.372629 -1.384267 -14.238577 -6.32012 -0.625439 -26.924185 -3.827596 -4.552377 -50.253128 -3.251567 -13.708523 -7.363472 -3.72094 18.14115 -14.052738 -3.242675 5e-06 -18.787266 -0.0 -0.429712 -8.456041 2.555504 1e-06 0.0 -1e-06 -15.923531 -20.094477 -5.473584 30.419205 -7.190827 1.735927 4e-06 -8.162922 -1e-06 -1.861904 -22.861465 -6.167939 -2e-06 -2e-06 0.0 175.915939 -1.164173 -6.905622 41.177101 -0.18537 0.350387 -99.11837 7.852209 1.754553 -6.778917 1.397027 2.100379 -0.999999 -0.0 0.0 -24.456305 -8.571923 -18.699133 15.433455 0.184204 -0.131876 -67.631958 -1.339959 -8.007539 -10.195031 0.932924 1.654072 -1.0 -0.0 0.0 
0.0 0.0 0.0 0.0 -0.0 0.0 -11.182476 94.107033 238.888245 90.760544 4.836566 95.985672 9.738488 -0.363548 -0.315462 -8.330685 -0.425136 -0.084314 22.202959 -1.470904 -2.383212 33.948936 -1.102246 2.715252 -2.733306 -0.55438 0.881857 -38.495625 -0.228033 1.426109 5e-06 -0.0 -1e-06 0.002179 0.003511 0.016764 0.041434 -0.024204 0.050702 0.073693 0.02365 -0.007383 -91.789574 -74.463455 114.658989 29.329882 -50.52837 2.496169 54.405521 -1.322047 -0.340513 13.254955 9.133967 19.962811 17.63662 -26.322725 52.411194 -19.466665 -14.395597 29.410395 -1e-06 -8.774822 2e-06 15.694263 -18.620699 5.877899 -0.609777 -1.795655 -3.889327 -4.807088 -11.046811 -2.93785 4e-06 -20.976017 -1e-06 -5.019969 -25.03356 -4.031885 6e-06 0.0 -0.0 -10.634531 -5.686969 -3.565585 10.573272 -17.922951 -3.113904 3e-06 -13.821208 2e-06 -0.501777 -31.181501 -4.027016 -11.420068 -59.465389 7.046127 -13.982715 -7.150199 -2.875039 13.772731 -8.40149 -3.218243 0.347735 -34.211544 0.771651 -0.963029 -17.733366 2.621016 2e-06 0.0 0.0 -17.346418 -20.095219 -4.201779 21.757555 -1.638373 3.86642 2e-06 -6.338822 -0.0 -1.697588 -22.591742 -6.194007 -0.0 -5e-06 -2e-06 94.842705 -76.005913 107.445488 33.140869 -47.913208 15.055187 58.703285 0.010602 -0.049384 0.055345 14.66385 10.044418 22.182114 -20.375891 49.933311 -16.701818 -16.74353 28.476532 -4e-06 -12.690603 -1e-06 16.15572 -17.53907 2.599031 -0.105919 -1.513858 -4.27588 -5.039041 -5.612873 -2.953558 4e-06 -11.020525 -2e-06 -6.111298 -15.895334 -3.840472 -0.0 -0.0 0.0 -10.283369 -5.680288 -4.341839 11.028295 -11.302406 -2.372633 -1.384267 -14.238582 -6.320125 -0.625437 -26.924192 -3.827601 -4.429471 -50.259907 -3.499818 -13.708525 -7.363477 -3.720939 18.141151 -14.052741 -3.242676 6e-06 -18.78727 -3e-06 -0.429711 -8.456045 2.555503 -1e-06 0.0 -1e-06 -15.923536 -20.094486 -5.473584 30.419214 -7.190828 1.735926 5e-06 -8.162927 -2e-06 -1.861901 -22.861473 -6.167946 -1e-06 -4e-06 -1e-06 176.693481 -1.701114 -6.724743 40.784695 -0.202376 0.391501 -99.561012 8.272243 1.282931 -7.128249 1.384639 2.113692 -0.999999 -0.0 -0.0 -25.556564 -8.558225 -17.554367 18.363836 0.107555 -0.094837 -65.490181 -1.489824 -6.922124 -10.224507 0.918444 1.640532 -1.000001 0.0 1e-06 
0.0 0.0 0.0 0.0 -0.0 0.0 -11.895558 94.214165 240.859039 90.655724 4.255415 96.130844 9.571792 -0.247178 -0.3276 -8.422638 -0.390184 -0.220173 22.233765 -1.401073 -2.585068 33.672298 -1.082585 2.686547 -2.705627 -0.653631 0.788874 -38.504917 -0.197086 1.049058 7e-06 -0.0 0.0 0.005069 0.003039 0.02716 0.067166 -0.011153 0.06434 0.095733 0.010448 0.001475 -92.162399 -74.83342 115.068459 30.605675 -50.198803 1.563212 54.402988 -1.347502 -0.310028 13.243836 9.49966 20.024334 17.636635 -26.322729 52.411179 -19.466661 -14.395597 29.410385 -0.0 -8.774822 -2e-06 15.723487 -18.56431 5.830074 -0.609776 -1.795653 -3.889327 -4.807088 -11.046809 -2.937852 4e-06 -20.976015 -1e-06 -5.019972 -25.033556 -4.031879 6e-06 -0.0 -2e-06 -10.634537 -5.686973 -3.565585 10.573275 -17.922951 -3.113902 5e-06 -13.821209 1e-06 -0.501775 -31.181505 -4.027016 -11.410892 -59.390102 7.046346 -13.982714 -7.150197 -2.875044 13.772731 -8.401491 -3.21824 0.347737 -34.211544 0.771653 -0.963031 -17.733368 2.621022 1e-06 0.0 -1e-06 -17.346416 -20.095215 -4.201779 21.757557 -1.638375 3.866422 2e-06 -6.338823 0.0 -1.697587 -22.591742 -6.194004 -1e-06 -3e-06 -2e-06 95.225845 -76.004036 106.990189 33.863503 -47.455227 15.105271 59.603245 0.374165 0.059467 -0.258281 14.461835 10.219281 22.182108 -20.375893 49.933319 -16.701811 -16.743528 28.476532 -3e-06 -12.6906 -1e-06 16.198904 -17.513424 2.543079 -0.105919 -1.513856 -4.27588 -5.03904 -5.612872 -2.953557 5e-06 -11.020523 -3e-06 -6.111297 -15.895334 -3.840471 0.0 -0.0 1e-06 -10.283368 -5.680287 -4.341836 11.028292 -11.302406 -2.372633 -1.384266 -14.238578 -6.320124 -0.625439 -26.924185 -3.827596 -4.432773 -50.076908 -3.526516 -13.708522 -7.363474 -3.720938 18.141148 -14.052739 -3.242675 8e-06 -18.787268 -4e-06 -0.429709 -8.456043 2.555503 0.0 -1e-06 -1e-06 -15.923532 -20.094479 -5.473584 30.419207 -7.190827 1.735928 4e-06 -8.162925 -2e-06 -1.861899 -22.861467 -6.167942 -1e-06 -4e-06 -0.0 177.911942 -2.356424 -6.635733 39.635944 -0.249922 0.483722 -99.565292 8.732033 0.859658 -7.436967 1.477398 2.121306 -1.0 -0.0 -0.0 -26.240898 -8.557028 -16.895126 20.291445 0.127547 -0.008239 -64.837883 -2.156846 -6.128326 -10.06934 0.885301 1.662746 -1.000003 1e-06 -0.0 
0.0 0.0 0.0 0.0 -0.0 0.0 -12.686314 94.393509 242.924088 90.639938 3.593473 96.277542 9.323396 -0.249807 -0.397034 -8.51627 -0.419566 -0.386033 22.094702 -1.352504 -2.818193 33.389484 -1.049814 2.669517 -2.71119 -0.614664 0.586041 -38.240799 -0.18487 0.80448 5e-06 0.0 -0.0 -0.002324 0.003573 0.017064 0.07687 -0.000582 0.055466 0.092877 0.002484 -0.009867 -91.79361 -75.246147 114.596611 31.572752 -49.806469 1.632527 54.455868 -1.261361 -0.256065 13.044012 9.514399 20.614038 17.636629 -26.322731 52.41119 -19.466658 -14.395596 29.410381 -1e-06 -8.77482 -1e-06 15.683065 -18.507757 5.871831 -0.609777 -1.795653 -3.889329 -4.80709 -11.046811 -2.93785 5e-06 -20.976019 -0.0 -5.01997 -25.03356 -4.03188 5e-06 -2e-06 -0.0 -10.634532 -5.686967 -3.565587 10.573272 -17.922951 -3.1139 5e-06 -13.821209 -1e-06 -0.501774 -31.181505 -4.027014 -11.35294 -59.347229 7.079851 -13.982712 -7.150198 -2.87504 13.772728 -8.401493 -3.218243 0.347739 -34.211555 0.771654 -0.963026 -17.73337 2.62102 2e-06 1e-06 1e-06 -17.346416 -20.095217 -4.201783 21.757557 -1.638374 3.866427 2e-06 -6.338822 0.0 -1.697589 -22.591745 -6.194003 -2e-06 -4e-06 -4e-06 95.609779 -75.996559 106.481621 34.510559 -47.204262 15.25025 60.579502 0.611398 0.069577 -0.563193 14.16989 10.518997 22.18211 -20.375889 49.933304 -16.701815 -16.743528 28.47653 -2e-06 -12.690601 0.0 16.229586 -17.559488 2.531696 -0.105918 -1.513854 -4.275878 -5.039041 -5.612873 -2.953557 3e-06 -11.020525 -3e-06 -6.111298 -15.895334 -3.840467 -0.0 -0.0 0.0 -10.283369 -5.680288 -4.341839 11.028292 -11.302404 -2.372632 -1.384268 -14.238579 -6.320122 -0.62544 -26.924191 -3.827597 -4.456845 -50.063416 -3.569119 -13.708523 -7.363476 -3.720937 18.141148 -14.052739 -3.242675 7e-06 -18.78727 -7e-06 -0.429712 -8.456043 2.555501 1e-06 -1e-06 -1e-06 -15.923532 -20.094484 -5.473584 30.41921 -7.190825 1.735924 4e-06 -8.162926 -3e-06 -1.861903 -22.861469 -6.167942 -0.0 -5e-06 0.0 179.31575 -2.960119 -6.601404 38.029507 -0.2807 0.573896 -99.151199 9.224934 0.316645 -7.912996 1.488896 2.109979 -1.000001 0.0 0.0 -26.34111 -8.444082 -16.428518 21.323421 0.109315 0.009677 -64.045601 -2.245694 -5.745761 -10.003855 0.859989 1.648987 -1.000001 -0.0 0.0 
0.0 0.0 0.0 0.0 -0.0 0.0 -13.51946 94.667282 245.016693 90.664528 2.890572 96.387985 9.026726 -0.283131 -0.531445 -8.587501 -0.501157 -0.501513 21.749672 -1.317368 -3.070712 33.066566 -1.103709 2.65876 -2.744534 -0.464133 0.23479 -37.658154 -0.129809 0.704801 7e-06 -0.0 -0.0 -0.026158 0.000376 -0.000435 0.050516 -0.0109 0.038459 0.065003 0.007579 -0.030636 -91.251663 -75.636787 113.780609 32.028332 -49.348244 2.802214 54.631088 -1.075339 -0.184327 12.629364 9.216407 21.125835 17.636625 -26.322729 52.411182 -19.466652 -14.395592 29.410381 0.0 -8.774819 -2e-06 15.623265 -18.476999 5.983428 -0.609777 -1.795653 -3.889329 -4.807087 -11.046809 -2.93785 3e-06 -20.976015 2e-06 -5.019969 -25.033558 -4.031878 7e-06 -1e-06 -2e-06 -10.63453 -5.686967 -3.565588 10.57327 -17.922947 -3.113897 2e-06 -13.821205 2e-06 -0.50178 -31.181498 -4.027012 -11.331985 -59.369495 7.133681 -13.982712 -7.150196 -2.875042 13.772726 -8.401491 -3.218242 0.347731 -34.211552 0.771658 -0.963032 -17.73337 2.621021 0.0 2e-06 2e-06 -17.346413 -20.095213 -4.201783 21.757553 -1.638374 3.866429 2e-06 -6.338823 1e-06 -1.697592 -22.591745 -6.194002 -0.0 -4e-06 -2e-06 95.747536 -75.95739 106.252739 35.211193 -47.049641 15.259078 61.474892 0.623666 -0.075663 -0.900467 13.788762 10.560063 22.182117 -20.375898 49.933319 -16.701813 -16.74353 28.476534 -4e-06 -12.690601 1e-06 16.285578 -17.639297 2.541046 -0.10592 -1.513854 -4.275881 -5.03904 -5.61287 -2.953555 5e-06 -11.02052 -1e-06 -6.111297 -15.89533 -3.840472 -0.0 -0.0 0.0 -10.283369 -5.680289 -4.341839 11.028293 -11.302406 -2.372632 -1.384266 -14.238581 -6.320121 -0.625436 -26.924191 -3.827599 -4.46065 -50.158886 -3.669755 -13.708525 -7.363474 -3.720941 18.141148 -14.05274 -3.242672 7e-06 -18.78727 -4e-06 -0.429711 -8.456044 2.555504 1e-06 -1e-06 -1e-06 -15.923534 -20.094482 -5.473585 30.41921 -7.190827 1.735925 5e-06 -8.162925 -0.0 -1.861901 -22.861467 -6.167941 -1e-06 -5e-06 -0.0 -179.154465 -3.507221 -6.561408 36.087448 -0.304785 0.651085 -98.115646 9.782372 -0.250172 -8.844848 1.484703 2.096224 -0.999998 -0.0 -0.0 -26.268785 -8.159262 -16.121286 22.205002 0.064086 -0.002722 -62.902504 -2.076786 -5.352587 -9.97063 0.796162 1.610327 -1.000002 0.0 -0.0 
